<svg width="15" height="14" viewBox="0 0 15 14" fill="none" xmlns="http://www.w3.org/2000/svg">
<rect x="0.5" width="14" height="14" rx="3" fill="#8B5CF6"/>
<path d="M5.14047 5.31926C5.20952 5.97319 5.66337 6.51329 6.7107 6.51329C7.63825 6.51329 8.28042 5.31926 8.28094 4.12522C8.28145 2.93119 7.22508 2.11742 6.18729 2.15086C4.10134 2.24324 2 4.72216 2 7.70733C2 9.91202 3.04733 11.4389 4.61706 11.8864C7.75752 12.7818 12.4682 4.72216 12.4682 2.93119C12.4682 1.73706 10.9393 1.64307 10.3746 2.93119C9.6761 4.52446 9.1694 9.08021 9.85117 11.2894C10.5329 13.4986 13.1618 9.94598 12.9921 8.90121" stroke="#F2F2F2" stroke-linecap="round"/>
</svg>
