<svg width="1632" height="791" viewBox="0 0 1632 791" fill="none" xmlns="http://www.w3.org/2000/svg">
<g clip-path="url(#clip0_15_4)">
<path d="M0 0V37.5H5V4.5H26.5V37.5H32V4.5H814.5V786.5H5V229.5H26.5V247.5H32V201.5H26.5V226.5H5V201.5H0V791H1632V214.5H1627V230H1605.5V214.5H1600V248H1605.5V233.5H1627V786.5H819.5V4.5H1600V50.5H1605.5V4.5H1627V50.5H1632V0H0Z" fill="#EEEEEE"/>
<rect width="213" height="39.5" transform="matrix(-1 0 0 1 1519 227.5)" fill="#BFBFBF"/>
<rect width="191" height="5.5" transform="matrix(-1 0 0 1 1497 244.5)" fill="#E6E6E6"/>
<rect width="90" height="83.5" transform="matrix(-1 0 0 1 1627 247.5)" fill="#941C1B"/>
<rect width="5" height="536.5" transform="matrix(-1 0 0 1 1497 250)" fill="#941C1B"/>
<rect width="90" height="60" transform="matrix(-1 0 0 1 1627 377)" fill="#941C1B"/>
<rect width="90" height="59.5" transform="matrix(-1 0 0 1 1627 437)" fill="#262626"/>
<rect width="90" height="60.5" transform="matrix(-1 0 0 1 1627 542.5)" fill="#262626"/>
<rect width="90" height="60" transform="matrix(-1 0 0 1 1627 603)" fill="#941C1B"/>
<rect width="90" height="77.5" transform="matrix(-1 0 0 1 1627 709)" fill="#941C1B"/>
<rect width="51.5" height="46" transform="matrix(-1 0 0 1 1627 331)" fill="#737373"/>
<rect width="51.5" height="46" transform="matrix(-1 0 0 1 1627 496.5)" fill="#737373"/>
<rect width="51.5" height="46" transform="matrix(-1 0 0 1 1627 663)" fill="#737373"/>
<rect width="42" height="46" transform="matrix(-1 0 0 1 1575.5 331)" fill="#555555"/>
<rect width="42" height="46" transform="matrix(-1 0 0 1 1575.5 331)" fill="#555555"/>
<rect width="42" height="46" transform="matrix(-1 0 0 1 1575.5 496.5)" fill="#555555"/>
<rect width="42" height="46" transform="matrix(-1 0 0 1 1575.5 496.5)" fill="#555555"/>
<rect width="42" height="46" transform="matrix(-1 0 0 1 1575.5 663)" fill="#555555"/>
<rect width="42" height="46" transform="matrix(-1 0 0 1 1575.5 663)" fill="#555555"/>
<rect width="55.5" height="9.5" transform="matrix(-1 0 0 1 1552.5 247.5)" fill="#EEEEEE"/>
<rect width="55.5" height="9.5" transform="matrix(-1 0 0 1 1552.5 321.5)" fill="#EEEEEE"/>
<rect width="55.5" height="9.5" transform="matrix(-1 0 0 1 1552.5 377)" fill="#EEEEEE"/>
<rect width="55.5" height="9.5" transform="matrix(-1 0 0 1 1552.5 432.5)" fill="#EEEEEE"/>
<rect width="55.5" height="9.5" transform="matrix(-1 0 0 1 1552.5 487)" fill="#EEEEEE"/>
<rect width="55.5" height="9.5" transform="matrix(-1 0 0 1 1552.5 542.5)" fill="#EEEEEE"/>
<rect width="55.5" height="9.5" transform="matrix(-1 0 0 1 1552.5 598)" fill="#EEEEEE"/>
<rect width="55.5" height="9.5" transform="matrix(-1 0 0 1 1552.5 653.5)" fill="#EEEEEE"/>
<rect width="55.5" height="9.5" transform="matrix(-1 0 0 1 1552.5 709)" fill="#EEEEEE"/>
<rect width="55.5" height="9.5" transform="matrix(-1 0 0 1 1552.5 781)" fill="#EEEEEE"/>
<rect width="39" height="1.5" transform="matrix(-1 0 0 1 1594.5 298.5)" fill="#BFBFBF"/>
<circle cx="2.5" cy="2.5" r="2.5" transform="matrix(-1 0 0 1 1599 296.75)" fill="#737373"/>
<circle cx="2.5" cy="2.5" r="2.5" transform="matrix(-1 0 0 1 1556.25 296.75)" fill="#737373"/>
<rect width="39" height="1.5" transform="matrix(-1 0 0 1 1594.5 408.75)" fill="#BFBFBF"/>
<circle cx="2.5" cy="2.5" r="2.5" transform="matrix(-1 0 0 1 1599 407)" fill="#737373"/>
<circle cx="2.5" cy="2.5" r="2.5" transform="matrix(-1 0 0 1 1556.25 407)" fill="#737373"/>
<rect width="39" height="1.5" transform="matrix(-1 0 0 1 1594.5 464)" fill="#BFBFBF"/>
<circle cx="2.5" cy="2.5" r="2.5" transform="matrix(-1 0 0 1 1599 462.25)" fill="#737373"/>
<circle cx="2.5" cy="2.5" r="2.5" transform="matrix(-1 0 0 1 1556.25 462.25)" fill="#737373"/>
<rect width="39" height="1.5" transform="matrix(-1 0 0 1 1594.5 574.25)" fill="#BFBFBF"/>
<circle cx="2.5" cy="2.5" r="2.5" transform="matrix(-1 0 0 1 1599 572.5)" fill="#737373"/>
<circle cx="2.5" cy="2.5" r="2.5" transform="matrix(-1 0 0 1 1556.25 572.5)" fill="#737373"/>
<rect width="39" height="1.5" transform="matrix(-1 0 0 1 1594.5 629.75)" fill="#BFBFBF"/>
<circle cx="2.5" cy="2.5" r="2.5" transform="matrix(-1 0 0 1 1599 628)" fill="#737373"/>
<circle cx="2.5" cy="2.5" r="2.5" transform="matrix(-1 0 0 1 1556.25 628)" fill="#737373"/>
<rect width="39" height="1.5" transform="matrix(-1 0 0 1 1594.5 740)" fill="#BFBFBF"/>
<circle cx="2.5" cy="2.5" r="2.5" transform="matrix(-1 0 0 1 1599 738.25)" fill="#737373"/>
<circle cx="2.5" cy="2.5" r="2.5" transform="matrix(-1 0 0 1 1556.25 738.25)" fill="#737373"/>
<rect width="121" height="243.5" transform="matrix(-1 0 0 1 1309 398)" fill="#737373"/>
<rect width="36" height="243.5" transform="matrix(-1 0 0 1 1345 398)" fill="#262626"/>
<rect width="36" height="243.5" transform="matrix(-1 0 0 1 1188 398)" fill="#262626"/>
<path d="M1306 398V247H1301V393H1147.5V786.5H1152.5V641.5H1152V398H1306Z" fill="#941C1B"/>
<path d="M1301 247L1306 247L1305.5 120H974.5V5H970V124.5L1301 124.626V247Z" fill="#1C47A1"/>
<rect width="15" height="145" transform="matrix(-1 0 0 1 1253.5 641.5)" fill="#393939"/>
<path d="M933 326V326C926.649 326 921.5 331.149 921.5 337.5V337.5C921.5 343.851 926.649 349 933 349V349V326Z" fill="#4D1FAD"/>
<path d="M933 349V349C939.351 349 944.5 343.851 944.5 337.5V337.5C944.5 331.149 939.351 326 933 326V326V349Z" fill="#CBBD25"/>
<path d="M933 446.5V446.5C926.649 446.5 921.5 451.649 921.5 458V458C921.5 464.351 926.649 469.5 933 469.5V469.5V446.5Z" fill="#4D1FAD"/>
<path d="M933 469.5V469.5C939.351 469.5 944.5 464.351 944.5 458V458C944.5 451.649 939.351 446.5 933 446.5V446.5V469.5Z" fill="#CBBD25"/>
<path d="M933 567.5V567.5C926.649 567.5 921.5 572.649 921.5 579V579C921.5 585.351 926.649 590.5 933 590.5V590.5V567.5Z" fill="#4D1FAD"/>
<path d="M933 590.5V590.5C939.351 590.5 944.5 585.351 944.5 579V579C944.5 572.649 939.351 567.5 933 567.5V567.5V590.5Z" fill="#CBBD25"/>
<path d="M933 688V688C926.649 688 921.5 693.149 921.5 699.5V699.5C921.5 705.851 926.649 711 933 711V711V688Z" fill="#4D1FAD"/>
<path d="M933 711V711C939.351 711 944.5 705.851 944.5 699.5V699.5C944.5 693.149 939.351 688 933 688V688V711Z" fill="#CBBD25"/>
<path d="M1632 181.5V83.5H1627V109.5L1605.5 124V83.5H1600V181.5H1605.5V131.5L1627 146V181.5H1632Z" fill="#EEEEEE"/>
<rect x="1600" y="50.5" width="32" height="33" fill="#737373"/>
<rect x="1600" y="181.5" width="32" height="33" fill="#737373"/>
<path d="M0 70.5V168.5H5V142.5L26.5 128V168.5H32V70.5H26.5V120.5L5 106V70.5H0Z" fill="#EEEEEE"/>
<rect y="37.5" width="32" height="33" fill="#737373"/>
<rect y="168.5" width="32" height="33" fill="#737373"/>
<rect x="113" y="227.5" width="213" height="39.5" fill="#BFBFBF"/>
<rect x="135" y="244.5" width="191" height="5.5" fill="#E6E6E6"/>
<rect x="5" y="247.5" width="90" height="83.5" fill="#1C47A1"/>
<rect x="135" y="250" width="5" height="536.5" fill="#1C47A1"/>
<rect x="5" y="377" width="90" height="60" fill="#1C47A1"/>
<rect x="5" y="437" width="90" height="59.5" fill="#262626"/>
<rect x="5" y="542.5" width="90" height="60.5" fill="#262626"/>
<rect x="5" y="603" width="90" height="60" fill="#1C47A1"/>
<rect x="5" y="709" width="90" height="77.5" fill="#1C47A1"/>
<rect x="5" y="331" width="51.5" height="46" fill="#737373"/>
<rect x="5" y="496.5" width="51.5" height="46" fill="#737373"/>
<rect x="5" y="663" width="51.5" height="46" fill="#737373"/>
<rect x="56.5" y="331" width="42" height="46" fill="#555555"/>
<rect x="56.5" y="331" width="42" height="46" fill="#555555"/>
<rect x="56.5" y="496.5" width="42" height="46" fill="#555555"/>
<rect x="56.5" y="496.5" width="42" height="46" fill="#555555"/>
<rect x="56.5" y="663" width="42" height="46" fill="#555555"/>
<rect x="56.5" y="663" width="42" height="46" fill="#555555"/>
<rect x="79.5" y="247.5" width="55.5" height="9.5" fill="#EEEEEE"/>
<rect x="79.5" y="321.5" width="55.5" height="9.5" fill="#EEEEEE"/>
<rect x="79.5" y="377" width="55.5" height="9.5" fill="#EEEEEE"/>
<rect x="79.5" y="432.5" width="55.5" height="9.5" fill="#EEEEEE"/>
<rect x="79.5" y="487" width="55.5" height="9.5" fill="#EEEEEE"/>
<rect x="79.5" y="542.5" width="55.5" height="9.5" fill="#EEEEEE"/>
<rect x="79.5" y="598" width="55.5" height="9.5" fill="#EEEEEE"/>
<rect x="79.5" y="653.5" width="55.5" height="9.5" fill="#EEEEEE"/>
<rect x="79.5" y="709" width="55.5" height="9.5" fill="#EEEEEE"/>
<rect x="79.5" y="781" width="55.5" height="9.5" fill="#EEEEEE"/>
<rect x="37.5" y="298.5" width="39" height="1.5" fill="#BFBFBF"/>
<circle cx="35.5" cy="299.25" r="2.5" fill="#737373"/>
<circle cx="78.25" cy="299.25" r="2.5" fill="#737373"/>
<rect x="37.5" y="408.75" width="39" height="1.5" fill="#BFBFBF"/>
<circle cx="35.5" cy="409.5" r="2.5" fill="#737373"/>
<circle cx="78.25" cy="409.5" r="2.5" fill="#737373"/>
<rect x="37.5" y="464" width="39" height="1.5" fill="#BFBFBF"/>
<circle cx="35.5" cy="464.75" r="2.5" fill="#737373"/>
<circle cx="78.25" cy="464.75" r="2.5" fill="#737373"/>
<rect x="37.5" y="574.25" width="39" height="1.5" fill="#BFBFBF"/>
<circle cx="35.5" cy="575" r="2.5" fill="#737373"/>
<circle cx="78.25" cy="575" r="2.5" fill="#737373"/>
<rect x="37.5" y="629.75" width="39" height="1.5" fill="#BFBFBF"/>
<circle cx="35.5" cy="630.5" r="2.5" fill="#737373"/>
<circle cx="78.25" cy="630.5" r="2.5" fill="#737373"/>
<rect x="37.5" y="740" width="39" height="1.5" fill="#BFBFBF"/>
<circle cx="35.5" cy="740.75" r="2.5" fill="#737373"/>
<circle cx="78.25" cy="740.75" r="2.5" fill="#737373"/>
<rect x="323" y="398" width="121" height="243.5" fill="#737373"/>
<rect x="287" y="398" width="36" height="243.5" fill="#262626"/>
<rect x="444" y="398" width="36" height="243.5" fill="#262626"/>
<path d="M326 398V247H331V393H484.5V786.5H479.5V641.5H480V398H326Z" fill="#1C47A1"/>
<path d="M331 247L326 247L326.5 120H657.5V5H662V124.5L331 124.626V247Z" fill="#941C1B"/>
<rect x="378.5" y="641.5" width="15" height="145" fill="#393939"/>
<path d="M699 326V326C705.351 326 710.5 331.149 710.5 337.5V337.5C710.5 343.851 705.351 349 699 349V349V326Z" fill="#4D1FAD"/>
<path d="M699 349V349C692.649 349 687.5 343.851 687.5 337.5V337.5C687.5 331.149 692.649 326 699 326V326V349Z" fill="#CBBD25"/>
<path d="M699 446.5V446.5C705.351 446.5 710.5 451.649 710.5 458V458C710.5 464.351 705.351 469.5 699 469.5V469.5V446.5Z" fill="#4D1FAD"/>
<path d="M699 469.5V469.5C692.649 469.5 687.5 464.351 687.5 458V458C687.5 451.649 692.649 446.5 699 446.5V446.5V469.5Z" fill="#CBBD25"/>
<path d="M699 567.5V567.5C705.351 567.5 710.5 572.649 710.5 579V579C710.5 585.351 705.351 590.5 699 590.5V590.5V567.5Z" fill="#4D1FAD"/>
<path d="M699 590.5V590.5C692.649 590.5 687.5 585.351 687.5 579V579C687.5 572.649 692.649 567.5 699 567.5V567.5V590.5Z" fill="#CBBD25"/>
<path d="M699 688V688C705.351 688 710.5 693.149 710.5 699.5V699.5C710.5 705.851 705.351 711 699 711V711V688Z" fill="#4D1FAD"/>
<path d="M699 711V711C692.649 711 687.5 705.851 687.5 699.5V699.5C687.5 693.149 692.649 688 699 688V688V711Z" fill="#CBBD25"/>
</g>
<defs>
<clipPath id="clip0_15_4">
<rect width="1632" height="791" fill="white"/>
</clipPath>
</defs>
</svg>
